
<svg width="175" height="24" viewBox="0 0 175 24" fill="none" xmlns="http://www.w3.org/2000/svg">
<g clip-path="url(#clip0)">
<path d="M18.3894 15.356C18.3894 16.6756 17.3416 17.7439 16.0502 17.7439C15.7785 17.7439 15.5589 17.5193 15.5589 17.2439V6.76054C15.5589 6.48298 15.7785 6.26048 16.0502 6.26048H17.8981C18.1698 6.26048 18.3894 6.48517 18.3894 6.76054V15.356ZM13.1828 17.7439H11.3349C11.0632 17.7439 10.8436 17.5193 10.8436 17.2439V9.63082C10.8436 9.35325 11.0632 9.1308 11.3349 9.1308H13.1828C13.4545 9.1308 13.6741 9.3555 13.6741 9.63082V17.2439C13.6741 17.5193 13.4545 17.7439 13.1828 17.7439ZM8.46751 17.7439H6.61966C6.34792 17.7439 6.12835 17.5193 6.12835 17.2439V8.20342C6.12835 7.92585 6.34792 7.70333 6.61966 7.70333H8.46751C8.73929 7.70333 8.9588 7.92802 8.9588 8.20342V17.2439C8.9588 17.5193 8.73929 17.7439 8.46751 17.7439ZM15.5589 0H8.9588C4.01093 0 0 4.09509 0 9.14625V23.5C0 23.7775 0.219571 24 0.491314 24H15.5589C20.5069 24 24.5178 19.9049 24.5178 14.8538V9.14625C24.5178 4.09509 20.5069 0 15.5589 0Z" />
<path d="M44.6527 7.68787H42.5288C42.2331 7.68787 42.0571 7.80899 41.9788 8.10862L40.5396 13.5892L38.8722 8.10862C38.794 7.82887 38.6005 7.69004 38.3266 7.68787H36.7874C36.5156 7.69004 36.32 7.82887 36.2417 8.10862L34.5743 13.5892L33.1352 8.10862C33.0569 7.80682 32.8786 7.68787 32.5852 7.68787H30.4612C30.1069 7.68787 29.9504 7.90814 30.0482 8.24962L32.8786 17.3033C32.9569 17.5852 33.1742 17.724 33.4482 17.724H35.3352C35.6113 17.724 35.8265 17.5831 35.9048 17.3033L37.5526 12.0297L39.2005 17.3033C39.2787 17.5852 39.4961 17.724 39.77 17.724H41.657C41.9331 17.724 42.1484 17.5831 42.2266 17.3033L45.0571 8.24962C45.1636 7.90814 45.0071 7.68787 44.6527 7.68787Z" />
<path d="M55.1727 7.68788H53.2074C52.8922 7.68788 52.7162 7.86848 52.7162 8.19008V8.6373C51.9096 7.87065 50.8748 7.40808 49.7422 7.40808C47.1769 7.40808 45.0986 9.77835 45.0986 12.7037C45.0986 15.6291 47.1769 17.9994 49.7422 17.9994C50.8748 17.9994 51.9096 17.5368 52.7162 16.7702V17.2174C52.7162 17.539 52.8922 17.7196 53.2074 17.7196H55.1727C55.4879 17.7196 55.664 17.539 55.664 17.2174V8.19008C55.6618 7.86848 55.4858 7.68788 55.1727 7.68788ZM50.3596 15.1775C49.0573 15.1775 48.003 14.0695 48.003 12.7016C48.003 11.3336 49.0573 10.2255 50.3596 10.2255C51.6595 10.2255 52.7162 11.3336 52.7162 12.7016C52.7162 14.0695 51.6618 15.1775 50.3596 15.1775Z" />
<path d="M89.6924 11.3622V17.224C89.6924 17.5456 89.5162 17.7262 89.2015 17.7262H87.2359C86.9227 17.7262 86.7443 17.5456 86.7443 17.224V11.6222C86.7443 10.6176 86.175 10.1771 85.4273 10.1771C84.5425 10.1771 83.9925 10.6793 83.9925 11.8645V17.224C83.9925 17.5456 83.8163 17.7262 83.5009 17.7262H81.536C81.2206 17.7262 81.0444 17.5456 81.0444 17.224V8.19008C81.0444 7.86848 81.2229 7.68788 81.536 7.68788H83.5009C83.8163 7.68788 83.9925 7.86848 83.9925 8.19008V8.60423C84.4552 7.9059 85.2925 7.40588 86.5489 7.40588C88.3753 7.40588 89.6924 8.85315 89.6924 11.3622Z" />
<path d="M75.0863 7.40588C71.9795 7.40588 69.8164 9.71445 69.8164 12.7059C69.8164 15.6974 71.8991 18.006 75.164 18.006C77.1689 18.006 78.7821 17.1029 79.5491 15.356C79.7075 15.0344 79.5098 14.8141 79.156 14.8141H77.2688C77.0119 14.8141 76.8557 14.9132 76.6603 15.074C76.3056 15.3758 75.7556 15.5762 75.2055 15.5762C74.1816 15.5762 73.2643 15.1026 72.9056 13.9109H79.4706C79.7667 13.9109 79.9622 13.7699 80.0014 13.4505C80.0207 13.2104 80.0407 12.9681 80.0407 12.7082C80.0385 9.67485 77.9559 7.40588 75.0863 7.40588ZM72.8926 11.6222C73.197 10.622 73.9622 10.0757 75.0663 10.0757C75.934 10.0757 76.8009 10.4789 77.106 11.6222H72.8926Z" />
<path d="M68.7163 7.52692C69.0511 7.46744 69.2272 7.68772 69.2272 8.00932V10.3774C69.2272 10.699 69.0901 10.8598 68.8336 10.8598C67.7315 10.8202 66.6706 11.3819 66.6706 12.9877V17.2238C66.6706 17.5454 66.4945 17.7261 66.1793 17.7261H64.214C63.8988 17.7261 63.7227 17.5454 63.7227 17.2238V8.19C63.7227 7.86832 63.8988 7.68772 64.214 7.68772H66.1793C66.4945 7.68772 66.6706 7.86832 66.6706 8.19V9.276C66.964 8.2671 67.738 7.6767 68.7163 7.52692Z" />
<path d="M61.9335 7.52692C62.2683 7.46744 62.4444 7.68772 62.4444 8.00932V10.3774C62.4444 10.699 62.3074 10.8598 62.0509 10.8598C60.9487 10.8202 59.8878 11.3819 59.8878 12.9877V17.2238C59.8878 17.5454 59.7117 17.7261 59.3965 17.7261H57.4312C57.116 17.7261 56.9399 17.5454 56.9399 17.2238V8.19C56.9399 7.86832 57.116 7.68772 57.4312 7.68772H59.3965C59.7117 7.68772 59.8878 7.86832 59.8878 8.19V9.276C60.1813 8.2671 60.9574 7.6767 61.9335 7.52692Z" />
<path d="M100.932 18.2792C100.083 18.2792 99.3033 18.1203 98.5918 17.8025C97.8802 17.4847 97.2577 17.0287 96.724 16.4345C96.2041 15.8265 95.7936 15.0872 95.4925 14.2167C95.2052 13.3323 95.0615 12.3374 95.0615 11.232C95.0615 10.1403 95.212 9.15925 95.5131 8.2887C95.8141 7.41816 96.2314 6.67889 96.7651 6.07089C97.2987 5.46289 97.9281 4.99998 98.6533 4.68216C99.3786 4.35052 100.172 4.1847 101.034 4.1847C101.855 4.1847 102.574 4.35743 103.189 4.70289C103.819 5.03452 104.332 5.42143 104.729 5.86361L103.805 6.98289C103.449 6.59598 103.046 6.28507 102.594 6.05016C102.143 5.81525 101.629 5.6978 101.055 5.6978C100.412 5.6978 99.8301 5.82907 99.3101 6.09161C98.7902 6.34034 98.3455 6.70652 97.976 7.19016C97.6066 7.65998 97.3192 8.23343 97.114 8.91052C96.9224 9.58761 96.8266 10.3476 96.8266 11.1905C96.8266 12.0472 96.9224 12.8211 97.114 13.512C97.3192 14.1891 97.5997 14.7694 97.9555 15.2531C98.3113 15.7367 98.7423 16.1098 99.2486 16.3723C99.7685 16.6349 100.35 16.7662 100.993 16.7662C101.65 16.7662 102.225 16.6349 102.717 16.3723C103.21 16.096 103.675 15.716 104.113 15.2323L105.057 16.3102C104.523 16.932 103.921 17.4156 103.251 17.7611C102.58 18.1065 101.807 18.2792 100.932 18.2792Z" />
<path d="M106.992 18.0305V3.27271H108.675V7.2938L108.614 9.36652C109.093 8.91052 109.592 8.52361 110.112 8.2058C110.632 7.87416 111.241 7.70834 111.939 7.70834C112.992 7.70834 113.759 8.03998 114.238 8.70325C114.73 9.36652 114.976 10.3476 114.976 11.6465V18.0305H113.293V11.8745C113.293 10.9211 113.143 10.2371 112.842 9.82252C112.541 9.39416 112.062 9.17998 111.405 9.17998C110.885 9.17998 110.427 9.31125 110.03 9.57379C109.633 9.83634 109.182 10.2232 108.675 10.7345V18.0305H106.992Z" />
<path d="M120.045 18.2792C119.21 18.2792 118.512 18.0305 117.951 17.5331C117.404 17.0356 117.13 16.3309 117.13 15.4189C117.13 14.3134 117.616 13.4705 118.588 12.8902C119.559 12.296 121.112 11.8814 123.247 11.6465C123.247 11.3287 123.213 11.0178 123.144 10.7138C123.089 10.4098 122.987 10.1403 122.836 9.90543C122.686 9.67052 122.474 9.48398 122.2 9.3458C121.94 9.1938 121.605 9.1178 121.194 9.1178C120.62 9.1178 120.079 9.22834 119.573 9.44943C119.067 9.67052 118.615 9.91925 118.218 10.1956L117.561 9.01416C118.027 8.71016 118.594 8.41998 119.265 8.14361C119.935 7.85343 120.674 7.70834 121.482 7.70834C122.699 7.70834 123.582 8.08834 124.129 8.84834C124.677 9.59452 124.95 10.5963 124.95 11.8538V18.0305H123.555L123.411 16.8283H123.349C122.87 17.2291 122.357 17.5745 121.81 17.8647C121.263 18.1411 120.674 18.2792 120.045 18.2792ZM120.537 16.9112C121.016 16.9112 121.468 16.8007 121.892 16.5796C122.316 16.3447 122.768 16.0062 123.247 15.564V12.7658C122.412 12.8763 121.707 13.0076 121.133 13.1596C120.572 13.3116 120.113 13.4913 119.758 13.6985C119.415 13.9058 119.162 14.1476 118.998 14.424C118.848 14.6865 118.772 14.9767 118.772 15.2945C118.772 15.8749 118.943 16.2894 119.285 16.5382C119.628 16.7869 120.045 16.9112 120.537 16.9112Z" />
<path d="M129.464 18.2792C128.821 18.2792 128.362 18.0858 128.089 17.6989C127.815 17.312 127.678 16.7454 127.678 15.9992V3.27271H129.361V16.1236C129.361 16.4 129.409 16.5934 129.505 16.704C129.601 16.8145 129.71 16.8698 129.833 16.8698C129.888 16.8698 129.936 16.8698 129.977 16.8698C130.032 16.8698 130.107 16.856 130.203 16.8283L130.428 18.1134C130.319 18.1687 130.189 18.2102 130.038 18.2378C129.888 18.2654 129.696 18.2792 129.464 18.2792Z" />
<path d="M134.285 18.2792C133.642 18.2792 133.183 18.0858 132.91 17.6989C132.636 17.312 132.499 16.7454 132.499 15.9992V3.27271H134.182V16.1236C134.182 16.4 134.23 16.5934 134.326 16.704C134.422 16.8145 134.531 16.8698 134.654 16.8698C134.709 16.8698 134.757 16.8698 134.798 16.8698C134.853 16.8698 134.928 16.856 135.024 16.8283L135.249 18.1134C135.14 18.1687 135.01 18.2102 134.859 18.2378C134.709 18.2654 134.517 18.2792 134.285 18.2792Z" />
<path d="M141.363 18.2792C140.693 18.2792 140.063 18.1618 139.475 17.9269C138.9 17.6782 138.394 17.3327 137.956 16.8905C137.532 16.4345 137.197 15.8818 136.95 15.2323C136.704 14.5829 136.581 13.8436 136.581 13.0145C136.581 12.1854 136.704 11.4462 136.95 10.7967C137.21 10.1334 137.546 9.5738 137.956 9.1178C138.38 8.6618 138.859 8.31634 139.393 8.08143C139.927 7.8327 140.481 7.70834 141.055 7.70834C141.685 7.70834 142.246 7.81889 142.738 8.03998C143.245 8.26107 143.662 8.57889 143.99 8.99343C144.333 9.40798 144.593 9.90543 144.77 10.4858C144.948 11.0662 145.037 11.7156 145.037 12.4342C145.037 12.6138 145.03 12.7934 145.017 12.9731C145.017 13.1389 145.003 13.284 144.976 13.4083H138.244C138.312 14.4862 138.64 15.3429 139.229 15.9785C139.831 16.6003 140.611 16.9112 141.569 16.9112C142.047 16.9112 142.485 16.8422 142.882 16.704C143.293 16.552 143.683 16.3585 144.052 16.1236L144.647 17.2429C144.209 17.5192 143.724 17.7611 143.19 17.9683C142.656 18.1756 142.047 18.2792 141.363 18.2792ZM138.223 12.1854H143.559C143.559 11.1629 143.341 10.3891 142.903 9.86398C142.478 9.32507 141.876 9.05561 141.096 9.05561C140.741 9.05561 140.399 9.12471 140.07 9.26289C139.756 9.40107 139.468 9.60834 139.208 9.8847C138.948 10.1473 138.729 10.472 138.551 10.8589C138.387 11.2458 138.278 11.688 138.223 12.1854Z" />
<path d="M147.092 18.0305V7.95707H148.487L148.631 9.40798H148.693C149.171 8.92434 149.671 8.52361 150.191 8.2058C150.724 7.87416 151.34 7.70834 152.038 7.70834C153.092 7.70834 153.858 8.03998 154.337 8.70325C154.829 9.36652 155.076 10.3476 155.076 11.6465V18.0305H153.393V11.8745C153.393 10.9211 153.242 10.2371 152.941 9.82252C152.64 9.39416 152.161 9.17998 151.504 9.17998C150.984 9.17998 150.526 9.31125 150.129 9.57379C149.732 9.83634 149.281 10.2232 148.775 10.7345V18.0305H147.092Z" />
<path d="M161.272 22.6734C160.656 22.6734 160.095 22.6112 159.589 22.4869C159.082 22.3763 158.644 22.2036 158.275 21.9687C157.919 21.7338 157.639 21.4505 157.433 21.1189C157.242 20.7872 157.146 20.4003 157.146 19.9582C157.146 19.5298 157.276 19.1222 157.536 18.7352C157.796 18.3483 158.152 17.996 158.603 17.6782V17.5952C158.357 17.4432 158.145 17.236 157.967 16.9734C157.803 16.6971 157.721 16.3585 157.721 15.9578C157.721 15.5294 157.837 15.1563 158.07 14.8385C158.302 14.5207 158.549 14.272 158.809 14.0923V14.0094C158.48 13.7331 158.179 13.3669 157.906 12.9109C157.646 12.4411 157.516 11.9022 157.516 11.2942C157.516 10.7414 157.611 10.244 157.803 9.8018C158.008 9.35961 158.282 8.98652 158.624 8.68252C158.966 8.3647 159.363 8.12289 159.814 7.95707C160.28 7.79125 160.765 7.70834 161.272 7.70834C161.545 7.70834 161.798 7.73598 162.031 7.79125C162.277 7.8327 162.496 7.88798 162.688 7.95707H166.156V9.26289H164.104C164.337 9.4978 164.528 9.79489 164.679 10.1542C164.843 10.5134 164.925 10.9073 164.925 11.3356C164.925 11.8745 164.829 12.3651 164.638 12.8072C164.446 13.2356 164.186 13.6018 163.858 13.9058C163.529 14.196 163.139 14.424 162.688 14.5898C162.25 14.7556 161.778 14.8385 161.272 14.8385C161.025 14.8385 160.772 14.8109 160.512 14.7556C160.252 14.6865 160.006 14.5967 159.773 14.4862C159.595 14.6382 159.445 14.8109 159.322 15.0043C159.199 15.184 159.137 15.412 159.137 15.6883C159.137 16.0062 159.26 16.2687 159.506 16.476C159.753 16.6833 160.218 16.7869 160.902 16.7869H162.831C163.995 16.7869 164.863 16.9803 165.438 17.3672C166.027 17.7403 166.321 18.3483 166.321 19.1912C166.321 19.6611 166.204 20.1032 165.972 20.5178C165.739 20.9462 165.404 21.3192 164.966 21.6371C164.528 21.9549 163.995 22.2036 163.365 22.3832C162.749 22.5767 162.052 22.6734 161.272 22.6734ZM161.272 13.6985C161.559 13.6985 161.826 13.6433 162.072 13.5327C162.332 13.4222 162.558 13.2633 162.749 13.056C162.955 12.8487 163.112 12.6 163.221 12.3098C163.331 12.0058 163.386 11.6673 163.386 11.2942C163.386 10.548 163.18 9.97452 162.77 9.57379C162.359 9.15925 161.86 8.95198 161.272 8.95198C160.683 8.95198 160.184 9.15925 159.773 9.57379C159.363 9.97452 159.158 10.548 159.158 11.2942C159.158 11.6673 159.212 12.0058 159.322 12.3098C159.431 12.6 159.582 12.8487 159.773 13.056C159.979 13.2633 160.204 13.4222 160.451 13.5327C160.711 13.6433 160.984 13.6985 161.272 13.6985ZM161.518 21.492C161.997 21.492 162.428 21.4298 162.811 21.3054C163.208 21.1949 163.543 21.0429 163.817 20.8494C164.09 20.6698 164.302 20.4556 164.453 20.2069C164.603 19.9582 164.679 19.7025 164.679 19.44C164.679 18.9702 164.508 18.6454 164.166 18.4658C163.824 18.2862 163.324 18.1963 162.667 18.1963H160.943C160.752 18.1963 160.54 18.1825 160.307 18.1549C160.088 18.1411 159.869 18.0996 159.65 18.0305C159.294 18.2931 159.034 18.5694 158.87 18.8596C158.706 19.1498 158.624 19.44 158.624 19.7302C158.624 20.2691 158.877 20.6974 159.383 21.0152C159.903 21.3331 160.615 21.492 161.518 21.492Z" />
<path d="M171.6 18.2792C170.93 18.2792 170.3 18.1618 169.712 17.9269C169.137 17.6782 168.631 17.3327 168.193 16.8905C167.769 16.4345 167.434 15.8818 167.188 15.2323C166.941 14.5829 166.818 13.8436 166.818 13.0145C166.818 12.1854 166.941 11.4462 167.188 10.7967C167.448 10.1334 167.783 9.5738 168.193 9.1178C168.617 8.6618 169.096 8.31634 169.63 8.08143C170.164 7.8327 170.718 7.70834 171.292 7.70834C171.922 7.70834 172.483 7.81889 172.975 8.03998C173.482 8.26107 173.899 8.57889 174.228 8.99343C174.57 9.40798 174.83 9.90543 175.007 10.4858C175.185 11.0662 175.274 11.7156 175.274 12.4342C175.274 12.6138 175.267 12.7934 175.254 12.9731C175.254 13.1389 175.24 13.284 175.213 13.4083H168.481C168.549 14.4862 168.877 15.3429 169.466 15.9785C170.068 16.6003 170.848 16.9112 171.806 16.9112C172.284 16.9112 172.722 16.8422 173.119 16.704C173.53 16.552 173.92 16.3585 174.289 16.1236L174.884 17.2429C174.446 17.5192 173.961 17.7611 173.427 17.9683C172.893 18.1756 172.285 18.2792 171.6 18.2792ZM168.46 12.1854H173.796C173.796 11.1629 173.578 10.3891 173.14 9.86398C172.716 9.32507 172.113 9.05561 171.334 9.05561C170.978 9.05561 170.636 9.12471 170.307 9.26289C169.993 9.40107 169.705 9.60834 169.445 9.8847C169.185 10.1473 168.966 10.472 168.788 10.8589C168.624 11.2458 168.515 11.688 168.46 12.1854Z" />
</g>
<defs>
<clipPath id="clip0">
<rect width="175" height="24"/>
</clipPath>
</defs>
</svg>
